<svg xmlns="http://www.w3.org/2000/svg" viewBox="0 0 300 300" width="300" height="300">
  <defs>
    <clipPath id="sealClip"><circle cx="150" cy="150" r="140"/></clipPath>
  </defs>
  <!-- Outer scalloped edge -->
  <circle cx="150" cy="150" r="145" fill="none" stroke="#C9A961" stroke-width="1.5"/>
  <circle cx="150" cy="150" r="140" fill="none" stroke="#C9A961" stroke-width="2"/>
  <circle cx="150" cy="150" r="130" fill="none" stroke="#C9A961" stroke-width="0.5"/>
  <!-- Decorative dots around edge -->
  <g fill="#C9A961">
    <circle cx="150" cy="15" r="2"/><circle cx="185" cy="17" r="1.5"/><circle cx="218" cy="27" r="1.5"/>
    <circle cx="247" cy="44" r="1.5"/><circle cx="270" cy="67" r="1.5"/><circle cx="285" cy="95" r="1.5"/>
    <circle cx="293" cy="127" r="1.5"/><circle cx="293" cy="160" r="1.5"/><circle cx="285" cy="192" r="1.5"/>
    <circle cx="270" cy="220" r="1.5"/><circle cx="247" cy="243" r="1.5"/><circle cx="218" cy="260" r="1.5"/>
    <circle cx="185" cy="270" r="1.5"/><circle cx="150" cy="275" r="2"/><circle cx="115" cy="270" r="1.5"/>
    <circle cx="82" cy="260" r="1.5"/><circle cx="53" cy="243" r="1.5"/><circle cx="30" cy="220" r="1.5"/>
    <circle cx="15" cy="192" r="1.5"/><circle cx="7" cy="160" r="1.5"/><circle cx="7" cy="127" r="1.5"/>
    <circle cx="15" cy="95" r="1.5"/><circle cx="30" cy="67" r="1.5"/><circle cx="53" cy="44" r="1.5"/>
    <circle cx="82" cy="27" r="1.5"/><circle cx="115" cy="17" r="1.5"/>
  </g>
  <!-- Inner ring -->
  <circle cx="150" cy="150" r="100" fill="none" stroke="#C9A961" stroke-width="1"/>
  <!-- Center logo -->
  <text x="150" y="165" text-anchor="middle" font-family="Didot, Bodoni MT, Georgia, serif" font-weight="700" font-size="80" fill="#C9A961">B.E.</text>
  <!-- Bottom arc text -->
  <path id="bottomArc" d="M 60 180 A 100 100 0 0 0 240 180" fill="none"/>
  <text font-family="Arial, sans-serif" font-size="10" fill="#C9A961" letter-spacing="3">
    <textPath href="#bottomArc" startOffset="50%" text-anchor="middle">BEYOND ENOUGH</textPath>
  </text>
</svg>
